<?xml version="1.0" standalone="no"?>
<!DOCTYPE svg PUBLIC "-//W3C//DTD SVG 20010904//EN"
 "http://www.w3.org/TR/2001/REC-SVG-20010904/DTD/svg10.dtd">
<svg version="1.0" xmlns="http://www.w3.org/2000/svg"
 width="300.000000pt" height="300.000000pt" viewBox="0 0 300.000000 300.000000"
 preserveAspectRatio="xMidYMid meet">
<metadata>
Created by potrace 1.10, written by Peter Selinger 2001-2011
</metadata>
<g transform="translate(0.000000,300.000000) scale(0.100000,-0.100000)"
fill="#000000" stroke="none">
<path d="M1395 2289 c-361 -52 -640 -338 -686 -702 -18 -147 20 -339 94 -471
l33 -59 -60 -159 c-45 -119 -57 -161 -48 -170 8 -8 51 4 174 50 140 52 165 59
178 47 27 -25 143 -74 225 -96 112 -29 280 -29 390 0 283 76 503 296 576 576
29 112 29 280 0 390 -88 328 -347 554 -681 595 -95 11 -110 11 -195 -1z m285
-45 c30 -8 62 -16 71 -18 52 -13 223 -108 212 -119 -3 -4 -1 -7 5 -7 15 0 127
-111 164 -161 114 -155 162 -383 123 -584 -39 -199 -173 -402 -331 -498 -169
-104 -400 -152 -554 -116 -25 6 -49 12 -55 13 -5 1 -26 6 -45 10 -19 5 -74 28
-123 52 l-87 44 -118 -41 c-160 -55 -171 -59 -176 -51 -2 4 6 37 19 72 13 36
36 100 52 143 l28 79 -37 71 c-80 153 -107 296 -88 455 46 399 395 697 790
676 53 -2 120 -11 150 -20z"/>
<path d="M1444 1983 c-32 -6 -105 -72 -120 -110 -8 -18 -14 -50 -14 -71 0 -33
79 -375 97 -422 4 -8 5 -18 5 -22 -3 -14 47 -40 82 -42 49 -4 91 24 101 65 4
19 9 39 10 44 40 150 85 344 85 369 0 129 -113 215 -246 189z m136 -44 c47
-27 80 -83 80 -138 0 -49 -94 -426 -111 -447 -15 -18 -83 -18 -98 0 -18 22
-111 395 -111 447 0 120 134 197 240 138z"/>
<path d="M1439 1234 c-30 -19 -59 -73 -59 -108 0 -30 39 -87 70 -103 57 -29
130 1 156 64 19 45 12 88 -21 126 -32 36 -106 47 -146 21z m125 -40 c55 -56
17 -154 -60 -154 -50 0 -94 42 -94 90 0 81 96 121 154 64z"/>
<path d="M2286 1785 c49 -94 73 -164 88 -260 26 -164 3 -331 -64 -465 -10 -19
-18 -39 -18 -43 0 -5 -12 -21 -26 -36 -15 -15 -24 -30 -20 -33 3 -4 -37 -48
-88 -100 -76 -75 -111 -102 -185 -140 -143 -73 -231 -94 -390 -91 -119 2 -224
27 -328 78 -80 40 -98 41 -25 1 437 -238 996 -2 1134 478 47 160 45 307 -6
466 -22 69 -66 162 -92 195 -9 11 0 -11 20 -50z"/>
<path d="M1115 728 c-16 -5 -44 -16 -61 -24 -17 -7 -40 -15 -50 -17 -11 -2
-36 -12 -57 -21 -21 -9 -52 -20 -69 -23 l-31 -6 5 39 6 39 -13 -30 c-19 -40
-18 -65 0 -65 9 0 69 20 134 45 65 25 122 45 128 45 5 0 18 7 29 15 22 17 20
17 -21 3z"/>
</g>
</svg>
